<svg width="574" height="586" viewBox="0 0 574 586" fill="none" xmlns="http://www.w3.org/2000/svg">
<g opacity="0.31">
<path d="M440.6 309.7C442.268 277.056 439.35 244.412 431.013 212.605C408.502 122.206 357.646 51.8957 280.111 1.25549C279.694 1.25549 278.86 0.418514 278.443 0H269.273C268.856 0 268.439 0 267.605 0C258.018 0.837028 248.43 1.67398 238.842 2.92952C236.758 2.92952 234.257 3.76663 231.756 4.18514C306.79 41.4329 359.73 98.3508 391.828 175.357C421.425 245.668 421.008 341.089 393.496 409.725C362.231 487.15 310.125 544.905 235.924 582.99C236.758 582.99 237.592 582.99 238.009 582.99C251.765 585.083 265.521 586.338 279.694 585.92C280.945 585.92 282.612 585.501 283.446 584.664C322.63 558.716 355.562 526.491 381.824 487.15C417.673 433.162 437.265 373.733 440.183 308.445L440.6 309.7Z" fill="url(#paint0_linear_444_4711)"/>
<path d="M574 283.333C574 269.941 572.333 256.967 570.248 243.993C562.328 197.538 544.403 155.268 516.057 117.602C514.807 115.509 513.139 113.835 511.472 111.742C511.472 112.58 511.472 112.998 511.472 113.835C521.059 136.435 529.396 159.872 535.232 183.727C543.153 216.371 546.904 249.015 547.738 282.496C548.155 303.841 547.321 325.185 544.82 346.529C542.736 364.107 540.235 381.684 536.066 398.843C529.813 424.372 521.476 449.065 511.055 472.92C511.055 473.757 510.638 474.176 510.221 475.013C511.055 475.013 511.472 474.594 511.472 474.176C526.479 454.924 538.567 434.417 548.572 412.236C562.328 380.847 570.248 347.784 572.749 313.466C572.749 309.281 573.166 305.096 573.583 300.911V287.1C573.583 286.263 573.583 285.007 573.583 284.17L574 283.333Z" fill="url(#paint1_linear_444_4711)"/>
<path d="M421.421 41.0142C416.419 34.3179 410.583 29.7143 403.079 26.3662C388.906 20.0885 374.316 14.6478 359.727 10.4627C438.095 88.3063 480.615 181.635 480.615 293.378C480.615 405.121 438.095 498.45 359.727 576.294C359.727 576.294 360.143 576.294 360.56 576.294C378.068 571.271 395.159 564.994 411.417 556.624C413.084 555.787 414.335 554.531 415.585 553.275C471.027 483.384 501.041 404.284 506.043 315.141C508.127 279.567 505.209 243.994 498.123 209.257C485.2 147.317 459.355 91.6544 421.421 41.0142Z" fill="url(#paint2_linear_444_4711)"/>
<path d="M179.642 295.47C179.642 247.341 140.874 208.001 92.5191 208.001C44.5807 208.001 5.39716 246.923 5.39716 295.47C5.39716 343.6 44.5807 382.94 92.5191 382.522C140.457 382.522 179.642 343.6 179.642 295.052V295.47ZM31.659 295.47C30.4085 262.826 60.0044 233.949 92.5191 233.949C125.034 233.949 153.797 262.826 153.797 295.47C153.797 328.115 125.034 356.992 92.5191 356.992C60.0044 356.992 30.4085 328.115 31.659 295.47Z" fill="url(#paint3_linear_444_4711)"/>
<path d="M94.1925 266.593C77.5183 266.593 64.179 279.986 64.179 296.726C64.179 313.467 77.5183 326.859 94.1925 326.859C110.867 326.859 124.206 313.467 124.206 296.726C124.206 279.986 110.867 266.593 94.1925 266.593Z" fill="url(#paint4_linear_444_4711)"/>
<path d="M87.5413 172.017C122.974 169.924 153.821 181.224 179.666 205.08C190.921 215.542 199.675 227.679 206.345 241.072C211.764 233.957 218.434 227.261 225.52 222.239C201.343 178.713 156.322 149.417 105.049 146.069C74.6188 143.976 45.8558 151.091 19.5922 166.576C18.7585 166.995 17.5079 168.25 17.0911 169.506C10.0045 184.572 4.58541 199.639 0 215.542C0 215.961 0 216.379 0 217.216C23.3439 190.432 51.6917 174.11 87.5413 172.017Z" fill="url(#paint5_linear_444_4711)"/>
<path d="M204.257 353.239C199.672 362.028 193.836 370.398 186.749 377.931C165.49 401.368 139.645 415.179 107.964 418.108C65.0276 422.294 29.5941 406.809 0.831064 374.583C0.831064 375.42 0.831064 375.42 0.831064 375.838C5.41647 391.742 11.2525 406.809 18.339 421.875C19.1727 423.549 20.0064 424.805 21.6738 425.642C54.6062 443.638 89.6221 449.078 126.305 441.545C167.991 432.756 201.339 406.809 221.765 373.327C214.679 367.887 208.426 361.191 203.424 353.657L204.257 353.239Z" fill="url(#paint6_linear_444_4711)"/>
<path d="M315.541 173.696C323.461 188.762 330.131 204.247 334.716 220.151C350.556 231.032 363.062 246.517 369.732 264.513C368.481 253.213 366.814 241.914 363.896 230.614C349.723 170.766 319.709 120.963 273.021 81.2041C241.757 54.4192 206.325 35.5861 166.723 24.7047C165.473 24.7047 164.222 24.7047 163.388 24.7047C159.22 26.3787 155.051 28.4713 150.883 30.5639C143.796 34.3305 136.71 38.0972 129.623 42.2823C129.623 42.2823 129.623 42.2824 129.623 42.7009C169.224 48.1416 205.074 63.208 237.589 85.8078C270.103 108.408 295.948 137.703 315.124 172.859L315.541 173.696Z" fill="url(#paint7_linear_444_4711)"/>
<path d="M330.566 380.027C323.062 400.535 312.641 420.205 299.718 438.619C258.033 497.211 200.924 531.948 130.058 544.085C130.058 544.085 130.058 544.085 130.475 544.504C141.73 550.363 152.985 556.222 163.824 562.081C164.657 562.5 165.908 562.081 166.742 562.081C228.019 544.922 277.625 510.604 315.559 459.545C343.071 422.716 359.746 382.12 366.832 337.757C358.912 355.335 345.989 369.983 329.732 379.609L330.566 380.027Z" fill="url(#paint8_linear_444_4711)"/>
<path d="M213.006 150.255C232.598 166.995 248.022 185.829 259.277 206.754C266.364 205.08 274.284 203.825 281.787 203.825C289.291 203.825 284.705 203.825 285.956 203.825C265.947 159.462 232.598 125.563 187.161 102.544C154.229 85.8037 119.214 79.1075 82.5303 81.2001C81.6966 81.2001 80.446 81.6186 79.6123 82.4557C71.692 91.2445 63.3549 100.033 55.4347 108.822C55.0178 109.241 54.601 109.659 53.7672 110.915C113.378 100.033 166.735 111.752 213.006 150.673V150.255Z" fill="url(#paint9_linear_444_4711)"/>
<path d="M253.858 389.218C243.02 407.214 228.847 423.117 211.339 437.765C165.485 475.85 112.127 486.732 53.7672 476.269C53.7672 476.687 53.7672 476.687 53.7672 477.106C62.1044 486.313 70.4415 495.939 79.1954 505.146C79.6123 505.565 80.8628 505.983 81.2797 505.983C105.04 507.239 128.384 504.728 151.311 498.45C208.004 482.128 253.858 444.043 280.12 394.24C270.949 394.24 261.778 392.566 253.441 390.055L253.858 389.218Z" fill="url(#paint10_linear_444_4711)"/>
</g>
<defs>
<linearGradient id="paint0_linear_444_4711" x1="287" y1="0" x2="287" y2="586" gradientUnits="userSpaceOnUse">
<stop stop-color="#555555"/>
<stop offset="1" stop-color="#323232"/>
</linearGradient>
<linearGradient id="paint1_linear_444_4711" x1="287" y1="0" x2="287" y2="586" gradientUnits="userSpaceOnUse">
<stop stop-color="#555555"/>
<stop offset="1" stop-color="#323232"/>
</linearGradient>
<linearGradient id="paint2_linear_444_4711" x1="287" y1="0" x2="287" y2="586" gradientUnits="userSpaceOnUse">
<stop stop-color="#555555"/>
<stop offset="1" stop-color="#323232"/>
</linearGradient>
<linearGradient id="paint3_linear_444_4711" x1="287" y1="0" x2="287" y2="586" gradientUnits="userSpaceOnUse">
<stop stop-color="#555555"/>
<stop offset="1" stop-color="#323232"/>
</linearGradient>
<linearGradient id="paint4_linear_444_4711" x1="287" y1="0" x2="287" y2="586" gradientUnits="userSpaceOnUse">
<stop stop-color="#555555"/>
<stop offset="1" stop-color="#323232"/>
</linearGradient>
<linearGradient id="paint5_linear_444_4711" x1="287" y1="0" x2="287" y2="586" gradientUnits="userSpaceOnUse">
<stop stop-color="#555555"/>
<stop offset="1" stop-color="#323232"/>
</linearGradient>
<linearGradient id="paint6_linear_444_4711" x1="287" y1="0" x2="287" y2="586" gradientUnits="userSpaceOnUse">
<stop stop-color="#555555"/>
<stop offset="1" stop-color="#323232"/>
</linearGradient>
<linearGradient id="paint7_linear_444_4711" x1="287" y1="0" x2="287" y2="586" gradientUnits="userSpaceOnUse">
<stop stop-color="#555555"/>
<stop offset="1" stop-color="#323232"/>
</linearGradient>
<linearGradient id="paint8_linear_444_4711" x1="287" y1="0" x2="287" y2="586" gradientUnits="userSpaceOnUse">
<stop stop-color="#555555"/>
<stop offset="1" stop-color="#323232"/>
</linearGradient>
<linearGradient id="paint9_linear_444_4711" x1="287" y1="0" x2="287" y2="586" gradientUnits="userSpaceOnUse">
<stop stop-color="#555555"/>
<stop offset="1" stop-color="#323232"/>
</linearGradient>
<linearGradient id="paint10_linear_444_4711" x1="287" y1="0" x2="287" y2="586" gradientUnits="userSpaceOnUse">
<stop stop-color="#555555"/>
<stop offset="1" stop-color="#323232"/>
</linearGradient>
</defs>
</svg>
